<?xml version="1.0" standalone="no"?>
<!DOCTYPE svg PUBLIC "-//W3C//DTD SVG 20010904//EN"
 "http://www.w3.org/TR/2001/REC-SVG-20010904/DTD/svg10.dtd">
<svg version="1.0" xmlns="http://www.w3.org/2000/svg"
 width="4537.000000pt" height="1713.000000pt" viewBox="0 0 4537.000000 1713.000000"
 preserveAspectRatio="xMidYMid meet">

<g transform="translate(0.000000,1713.000000) scale(0.100000,-0.100000)"
fill="#000000" stroke="none">
<path d="M3050 12051 l-1345 -777 0 -2953 0 -2952 2545 -1469 c1400 -809 2551
-1470 2558 -1470 11 0 1555 889 3732 2149 305 177 741 428 967 559 l413 237
-1 1555 0 1555 -1690 975 c-930 536 -1718 990 -1751 1009 l-60 34 23 -44 c12
-24 550 -1067 1195 -2317 646 -1250 1174 -2275 1174 -2278 0 -2 -588 -3 -1306
-2 l-1306 3 -523 975 -523 975 -1238 3 -1239 2 -79 -147 c-131 -244 -576
-1087 -576 -1090 0 -2 219 -3 488 -3 l487 0 125 216 c69 119 138 239 153 268
16 28 40 70 53 94 l25 42 424 0 c234 0 425 -2 425 -4 0 -2 -59 -109 -131 -237
-72 -129 -240 -429 -373 -666 l-241 -433 -1322 0 c-728 0 -1323 2 -1323 5 0 2
243 456 539 1007 2069 3848 2519 4682 2527 4685 5 1 605 -1114 1334 -2479 729
-1364 1330 -2487 1335 -2494 8 -12 96 -14 527 -12 l517 3 -1197 2318 -1197
2317 -1390 803 c-764 441 -1394 805 -1400 809 -5 3 -615 -344 -1355 -771z"/>
<path d="M26990 9930 l0 -759 -88 87 c-167 166 -367 270 -602 313 -110 20
-400 18 -520 -4 -695 -128 -1120 -708 -1120 -1527 0 -752 351 -1317 940 -1514
280 -94 623 -100 880 -16 165 54 295 137 423 269 l87 90 0 -189 0 -190 505 0
505 0 0 2100 0 2100 -505 0 -505 0 0 -760z m-495 -1175 c209 -53 381 -220 450
-437 33 -105 45 -184 45 -308 0 -124 -12 -203 -45 -308 -68 -214 -241 -385
-446 -439 -85 -22 -243 -22 -329 1 -214 58 -387 234 -458 468 -64 207 -47 476
42 663 86 181 233 309 408 355 91 24 250 26 333 5z"/>
<path d="M38120 8590 l0 -2100 505 0 505 0 0 2100 0 2100 -505 0 -505 0 0
-2100z"/>
<path d="M15405 10450 c-3 -6 -388 -899 -854 -1985 l-848 -1975 535 2 536 3
137 345 136 345 859 2 859 3 135 -350 135 -350 553 0 c523 0 553 1 548 18 -4
9 -377 901 -831 1982 l-824 1965 -535 3 c-352 1 -537 -1 -541 -8z m780 -1755
c142 -368 260 -678 262 -687 5 -17 -25 -18 -536 -18 -308 0 -541 4 -541 9 0 5
108 285 241 622 132 338 254 650 271 693 20 52 33 74 38 65 4 -8 124 -315 265
-684z"/>
<path d="M5472 9283 l-431 -798 435 -3 c239 -1 629 -1 867 0 l433 3 -431 797
c-236 439 -433 798 -436 798 -3 0 -200 -359 -437 -797z"/>
<path d="M22765 9593 c-368 -12 -751 -99 -1130 -255 -66 -27 -132 -54 -147
-60 -16 -5 -28 -14 -28 -20 0 -9 267 -668 273 -675 2 -1 52 19 113 46 188 83
391 145 584 176 121 19 333 19 425 0 154 -32 282 -124 336 -240 28 -59 56
-193 45 -220 -4 -11 -98 -14 -528 -18 -555 -5 -582 -7 -768 -59 -367 -102
-603 -344 -661 -678 -18 -105 -15 -297 5 -405 61 -319 276 -566 583 -671 144
-49 253 -65 438 -66 380 -1 642 90 854 298 41 41 77 74 78 74 2 0 3 -74 3
-165 l0 -165 495 0 496 0 -4 1083 c-3 1060 -3 1084 -24 1172 -78 333 -243 544
-542 694 -227 114 -531 167 -896 154z m473 -1945 c-3 -139 -4 -145 -37 -208
-48 -92 -139 -178 -243 -229 -106 -53 -170 -70 -288 -77 -209 -13 -360 58
-430 202 -34 70 -35 207 -1 276 26 54 87 113 140 136 86 37 130 40 499 41
l364 1 -4 -142z"/>
<path d="M34094 9589 c-339 -26 -628 -183 -814 -444 l-55 -76 -3 245 -2 246
-500 0 -500 0 0 -1535 0 -1535 500 0 499 0 3 833 c3 822 4 833 25 910 35 122
87 211 173 297 113 114 227 160 390 160 200 0 350 -91 435 -263 64 -129 64
-134 65 -1084 l0 -853 505 0 504 0 3 843 c4 944 -1 882 79 1046 97 198 278
311 499 311 236 0 396 -121 476 -360 17 -52 19 -111 22 -947 l3 -893 504 0
505 0 0 998 c0 652 -4 1036 -11 1108 -58 578 -426 952 -976 993 -527 40 -933
-172 -1147 -598 l-38 -74 -32 76 c-124 283 -362 487 -659 562 -74 19 -345 52
-351 44 -1 -1 -46 -5 -102 -10z"/>
<path d="M19485 9579 c-684 -72 -1183 -509 -1324 -1160 -62 -288 -52 -650 26
-918 54 -189 147 -368 267 -518 220 -272 559 -452 955 -507 140 -20 429 -20
572 -1 412 54 755 232 971 503 57 72 144 210 137 216 -11 9 -742 426 -743 424
-54 -86 -80 -118 -139 -175 -124 -117 -256 -166 -452 -167 -183 0 -285 41
-410 168 -126 127 -184 258 -206 471 -20 190 23 409 107 547 132 217 339 318
586 288 203 -24 361 -114 485 -274 l30 -39 359 208 c197 114 363 211 367 215
16 14 -118 196 -217 295 -290 289 -694 439 -1170 434 -66 -1 -157 -5 -201 -10z"/>
<path d="M29925 9579 c-342 -35 -661 -171 -899 -382 -133 -117 -268 -313 -347
-502 -152 -365 -169 -861 -43 -1254 14 -42 49 -125 78 -186 211 -433 623 -709
1162 -780 149 -19 448 -20 596 0 386 51 703 196 952 436 l91 88 -264 265 -265
265 -25 -20 c-14 -11 -55 -44 -91 -74 -112 -93 -296 -178 -444 -204 -85 -15
-259 -13 -341 4 -155 32 -321 147 -411 283 -34 50 -81 151 -99 210 l-6 22
1065 0 1066 0 0 178 c0 553 -145 969 -439 1262 -228 227 -516 352 -895 389
-124 12 -323 12 -441 0z m425 -728 c130 -44 246 -145 306 -266 36 -74 64 -182
64 -252 l0 -43 -585 0 -585 0 0 21 c0 34 59 200 91 256 90 157 217 257 379
298 81 21 247 14 330 -14z"/>
<path d="M41122 9579 c-726 -70 -1261 -513 -1400 -1160 -130 -603 44 -1217
442 -1562 241 -208 536 -334 896 -382 124 -17 439 -19 560 -5 404 50 732 201
981 449 302 302 447 706 426 1186 -19 417 -160 758 -422 1020 -348 347 -887
512 -1483 454z m447 -842 c219 -78 374 -269 427 -527 21 -105 15 -362 -11
-455 -63 -227 -218 -401 -420 -471 -71 -25 -95 -28 -210 -29 -112 0 -141 3
-204 24 -201 66 -369 255 -426 479 -36 143 -36 361 0 506 8 34 36 103 61 155
62 125 163 230 276 286 112 55 163 65 308 61 104 -2 137 -7 199 -29z"/>
</g>
</svg>
